<svg width="53" height="62" xmlns="http://www.w3.org/2000/svg">
 <title/>
 <desc/>

 <g>
  <title>background</title>
  <rect fill="none" id="canvas_background" height="64" width="55" y="-1" x="-1"/>
 </g>
 <g>
  <title>Layer 1</title>
  <polygon fill="#0d0d0d" stroke="#a27e40" points="26.59293646365404,1 52.57369513064623,16 52.57369513064623,46 26.59293646365404,61 0.6121777966618538,46 0.6121777966618538,16 " id="Polygon-1"/>
  <path fill="#a27e40" id="facebook" d="m21.947394,48.291846l0,-17.31535l-3.51893,0l0,-5.7396l3.51893,0l0,-3.47097c0,-4.68175 1.39977,-8.05777 6.52588,-8.05777l6.09826,0l0,5.72782l-4.29411,0c-2.15036,0 -2.64038,1.42894 -2.64038,2.92532l0,2.8756l6.61755,0l-0.90325,5.7396l-5.7143,0l0,17.31535l-5.68965,0z"/>
 </g>
</svg>