<svg width="53" height="61.99999999999999" xmlns="http://www.w3.org/2000/svg">
 <title/>
 <desc/>

 <g>
  <title>background</title>
  <rect fill="none" id="canvas_background" height="64" width="55" y="-1" x="-1"/>
 </g>
 <g>
  <title>Layer 1</title>
  <polygon fill="#0d0d0d" stroke="#a27e40" points="26.499996185302734,1 52.48076629638672,16 52.48076629638672,46 26.499996185302734,61 0.5192373991012573,46 0.5192373991012573,16 " id="Polygon-10"/>
  <path fill="#0d0d0d" stroke="#a27e40" id="instagram" d="m15.85608,15l21.28784,0c2.95808,0 5.35608,2.4052 5.35608,5.35608l0,21.28784c0,2.95808 -2.4052,5.35608 -5.35608,5.35608l-21.28784,0c-2.95808,0 -5.35608,-2.4052 -5.35608,-5.35608l0,-21.28784c0,-2.95808 2.4052,-5.35608 5.35608,-5.35608zm19.59075,13.33333l4.3865,0l0,13.31059c0,1.48228 -1.20825,2.68941 -2.68941,2.68941l-21.28784,0c-1.48228,0 -2.68941,-1.20825 -2.68941,-2.68941l0,-13.31059l4.3865,0c-0.25147,0.84495 -0.3865,1.74004 -0.3865,2.66667c0,5.15466 4.17867,9.33333 9.33333,9.33333c5.15466,0 9.33333,-4.17867 9.33333,-9.33333c0,-0.92663 -0.13503,-1.82172 -0.3865,-2.66667l0,0zm-8.94683,9.33334c3.6819,0 6.66667,-2.98477 6.66667,-6.66667c0,-3.6819 -2.98477,-6.66667 -6.66667,-6.66667c-3.6819,0 -6.66667,2.98477 -6.66667,6.66667c0,3.6819 2.98477,6.66667 6.66667,6.66667zm5.33333,-18.67897c0,-0.72958 0.57534,-1.32103 1.32104,-1.32103l5.35793,0c0.72958,0 1.32103,0.57534 1.32103,1.32103l0,5.35793c0,0.72959 -0.57534,1.32104 -1.32103,1.32104l-5.35793,0c-0.72959,0 -1.32104,-0.57534 -1.32104,-1.32104l0,-5.35793z"/>
 </g>
</svg>