<svg width="53" height="62" xmlns="http://www.w3.org/2000/svg">
 <title/>
 <desc/>

 <g>
  <title>background</title>
  <rect fill="none" id="canvas_background" height="64" width="55" y="-1" x="-1"/>
 </g>
 <g>
  <title>Layer 1</title>
  <polygon fill="#0d0d0d" stroke="#a27e40" points="26.500001907348633,1 52.48077392578125,15.999999761581421 52.48077392578125,46.00000071525574 26.500001907348633,61.00000071525574 0.519227921962738,46.00000071525574 0.519227921962738,15.999999761581421 " id="Polygon-48"/>
  <path fill="#a27e40" id="whatsapp" d="m26.802025,46.759515c-2.86043,0 -5.54769,-0.73108 -7.88566,-2.01416l-9.03175,2.87003l2.94424,-8.68504c-1.48504,-2.43951 -2.34055,-5.30031 -2.34055,-8.35828c0,-8.94019 7.30375,-16.18745 16.31409,-16.18745c9.00923,0 16.31299,7.24726 16.31299,16.18745c0,8.94019 -7.30339,16.18745 -16.31336,16.18745zm0,-29.79693c-7.56332,0 -13.71544,6.10523 -13.71544,13.60948c0,2.97785 0.9707,5.73563 2.6123,7.97945l-1.71323,5.05403l5.2704,-1.6752c2.16591,1.4219 4.76012,2.2512 7.54597,2.2512c7.56222,0 13.71545,-6.10487 13.71545,-13.60911c0,-7.50425 -6.15323,-13.60985 -13.71545,-13.60985l0,0zm8.23754,17.3376c-0.10043,-0.16504 -0.36702,-0.26474 -0.76615,-0.46301c-0.40025,-0.19828 -2.36677,-1.15865 -2.73268,-1.29046c-0.36702,-0.13219 -0.63397,-0.19902 -0.90018,0.19827c-0.26622,0.39729 -1.03274,1.29046 -1.26647,1.5552c-0.23335,0.26511 -0.46634,0.29834 -0.86621,0.0997c-0.39951,-0.19828 -1.68813,-0.61736 -3.216,-1.96911c-1.18856,-1.05157 -1.99126,-2.34979 -2.22425,-2.74745c-0.23335,-0.39692 -0.02474,-0.61145 0.17539,-0.80898c0.17981,-0.17797 0.39987,-0.46339 0.6,-0.69489c0.20012,-0.23188 0.26658,-0.39693 0.3995,-0.66204c0.13366,-0.26473 0.06683,-0.49624 -0.03323,-0.69526c-0.10006,-0.19827 -0.90018,-2.15077 -1.23323,-2.94535c-0.33304,-0.79385 -0.66572,-0.66166 -0.89944,-0.66166c-0.23336,0 -0.49994,-0.03323 -0.76653,-0.03323c-0.26658,0 -0.70006,0.09932 -1.06671,0.49624c-0.36627,0.3973 -1.39901,1.35729 -1.39901,3.30942c0,1.95249 1.43225,3.83889 1.63274,4.10326c0.19975,0.26437 2.76554,4.40123 6.8304,5.99003c4.06634,1.58843 4.06634,1.05858 4.79963,0.99249c0.73218,-0.06609 2.36492,-0.95963 2.69908,-1.88603c0.33267,-0.92714 0.33267,-1.72172 0.23335,-1.88714l0,0z"/>
 </g>
</svg>